# xmcd CD database file
#
# Track frame offsets:
#	150
#	14034
#	31715
#	53084
#	69353
#	85262
#	101245
#	121872
#	144159
#	162794
#	178076
#	196639
#	223687
#
# Disc length: 3172 seconds
#
# Revision: 3
# Processed by: cddbd v1.5.1PL0 Copyright (c) Steve Scherf et al.
# Submitted via: CDex 1.51
#
DISCID=a80c620d
DTITLE=Sr. Antipirina (By dAdE) - Diverlimentos (By dAdE)
DYEAR=2001
DGENRE=Salsa
TTITLE0=Ya llegó
TTITLE1=El rey de las milongas
TTITLE2=Nahna
TTITLE3=La noche
TTITLE4=Dale una razón
TTITLE5=Por la carretera
TTITLE6=Ay morena
TTITLE7=Se va
TTITLE8=Ara Ashuan
TTITLE9=Rumba del desaparecido
TTITLE10=Y tú no estás
TTITLE11=Dime que no quieres
TTITLE12=Dame una razón (Live) Getafe 2003
EXTD=YEAR: 2001
EXTT0=
EXTT1=
EXTT2=
EXTT3=
EXTT4=
EXTT5=
EXTT6=
EXTT7=
EXTT8=
EXTT9=
EXTT10=
EXTT11=
EXTT12=
PLAYORDER=
